<svg width="512" height="512" viewBox="0 0 512 512" fill="none" xmlns="http://www.w3.org/2000/svg">
<g clip-path="url(#clip0_315_286)">
<path d="M521.536 431.287C460.695 421.441 364.304 411.374 255.575 411.374C146.831 411.374 50.4404 421.441 -10.3854 431.287C59.0869 424.407 152.542 420.194 255.575 420.194C358.608 420.194 452.08 424.407 521.536 431.287Z" fill="#4A8B2C"/>
<path d="M183.531 201.648C183.61 201.553 183.689 201.458 183.768 201.38C183.752 201.38 183.752 201.38 183.736 201.38C183.689 201.458 183.61 201.569 183.531 201.648Z" fill="#4E738A"/>
<path d="M333.063 203.841L333.805 203.983C333.868 203.999 334.373 204.093 335.209 204.267C335.193 204.251 335.177 204.22 335.162 204.204C334.515 204.078 333.757 203.967 333.063 203.841Z" fill="#4E738A"/>
<path d="M399.001 339.172L398.102 336.9L405.234 334.044L405.565 334.881C392.911 298.054 363.421 244.044 342.104 213.639C336.14 212.282 332.527 211.557 332.369 211.525L329.955 211.052L331.406 203.541C298.508 197.861 237.162 195.415 195.428 199.896C193.061 202.437 190.773 204.977 188.659 207.486L187.081 209.363L181.306 204.504C160.368 231.043 128.465 284.658 112.686 323.52C114.8 328.632 116.205 331.157 116.268 331.252L117.483 333.366L110.887 337.247L109.814 335.433C115.4 351.937 125.798 375.258 137.947 398.767C142.002 398.515 146.105 398.263 150.286 398.026C137.584 373.948 126.618 349.491 121.38 333.255C134.618 296.113 169.283 237.607 189.906 212.535C228.863 206.429 296.804 208.953 328.692 215.123C348.684 240.699 381.85 300.073 394.126 337.531C388.445 352.884 377.164 375.589 364.147 398.199C368.391 398.452 372.588 398.704 376.706 398.973C386.915 380.875 395.972 363.045 402.173 348.639C400.295 342.517 399.048 339.299 399.001 339.172Z" fill="#4E738A"/>
<path d="M364.131 398.215C377.148 375.605 388.43 352.9 394.11 337.547C381.834 300.073 348.668 240.715 328.677 215.138C296.804 208.969 228.847 206.444 189.89 212.551C169.252 237.623 134.587 296.113 121.364 333.271C126.618 349.507 137.569 373.964 150.27 398.042C182.348 396.211 217.707 395.012 255.575 395.012C294.722 394.981 331.201 396.259 364.131 398.215Z" fill="#4A5B6B"/>
<path d="M182.758 202.531L181.18 204.409L181.275 204.488C182.032 203.525 182.805 202.531 183.531 201.648C183.294 201.948 183.01 202.247 182.758 202.531Z" fill="#4E738A"/>
<path d="M405.549 334.881C405.88 335.827 406.259 336.837 406.559 337.768C405.328 341.082 403.814 344.774 402.141 348.655C405.155 358.69 409.746 376.788 413.328 401.781C415.994 402.018 418.614 402.239 421.201 402.475C415.253 359.905 406.243 336.664 406.117 336.332L405.549 334.881Z" fill="#4E738A"/>
<path d="M331.406 203.51V203.541C331.959 203.636 332.527 203.731 333.079 203.825L331.406 203.51Z" fill="#4E738A"/>
<path d="M39.9319 337.011C39.9319 289.77 55.6788 243.524 84.3955 206.034C87.4091 296.46 109.388 334.739 109.625 335.133L109.799 335.433C109.53 334.66 109.231 333.823 108.994 333.082C110.083 330.021 111.345 326.802 112.67 323.52C106.217 307.868 93.1525 267.744 91.8587 196.899C133.009 148.885 192.635 121.367 255.575 121.367C262.96 121.367 270.549 121.777 278.233 122.598C255.039 138.361 209.881 170.864 183.784 201.364C187.428 200.796 191.357 200.322 195.412 199.881C225.312 167.882 273.61 134.795 289.783 124.081C358.861 135.158 419.481 180.631 449.95 243.76C408.153 219.982 345.26 206.334 335.225 204.251C337.371 207.012 339.69 210.2 342.088 213.624C364.715 218.799 421.533 233.394 455.44 256.162C465.901 281.944 471.219 309.13 471.219 337.011C471.219 360.726 467.164 384.157 459.59 406.373C475.337 408.156 489.064 409.938 500.488 411.548C507.683 387.959 511.58 362.935 511.58 337.011C511.58 195.841 396.729 81.0061 255.56 81.0061C114.39 81.0061 -0.445007 195.857 -0.445007 337.011C-0.445007 362.935 3.54691 387.928 10.7576 411.532C22.1497 409.923 35.798 408.155 51.4659 406.388C43.8292 383.983 39.9319 360.663 39.9319 337.011Z" fill="#4E738A"/>
<path d="M398.102 336.9L399.001 339.172C399.048 339.299 400.295 342.517 402.141 348.655C403.814 344.774 405.328 341.082 406.559 337.768C406.259 336.837 405.88 335.843 405.549 334.881L405.218 334.044L398.102 336.9Z" fill="#4E738A"/>
<path d="M333.063 203.841C332.527 203.746 331.959 203.652 331.391 203.557L329.939 211.067L332.353 211.541C332.527 211.572 336.14 212.298 342.088 213.655C339.69 210.247 337.371 207.044 335.225 204.283C334.388 204.109 333.868 204.015 333.82 203.999L333.063 203.841Z" fill="#4E738A"/>
<path d="M117.467 333.366L116.252 331.252C116.189 331.157 114.785 328.632 112.67 323.52C111.329 326.818 110.083 330.037 108.994 333.082C109.231 333.824 109.546 334.66 109.799 335.433L110.872 337.247L117.467 333.366Z" fill="#4E738A"/>
<path d="M181.291 204.504L187.066 209.363L188.643 207.486C190.758 204.977 193.046 202.437 195.412 199.896C191.357 200.338 187.413 200.812 183.784 201.38C183.705 201.474 183.626 201.569 183.547 201.648C182.805 202.531 182.032 203.541 181.291 204.504Z" fill="#4E738A"/>
<path d="M442.376 290.338L433.887 316.877C433.887 317.414 433.682 317.698 433.303 317.698H368.549L350.577 393.561H292.339L310.295 317.698H292.734L291.25 322.289C290.572 325.161 289.199 327.765 287.479 330.163H294.548L279.164 395.154C308.733 395.533 336.582 396.622 362.285 398.12L378.379 330.179H433.272C437.122 330.179 440.514 328.553 442.881 325.95C444.427 324.246 445.547 322.147 446.037 319.765L459.054 279.451L305.072 279.546L301.538 290.48L442.376 290.338Z" fill="#4A8B2C"/>
<path d="M310.311 317.698L292.339 393.576H350.577L368.549 317.714H433.288C433.682 317.714 433.871 317.445 433.871 316.893L442.36 290.354L301.538 290.449L292.734 317.714H310.311V317.698Z" fill="white"/>
<path d="M292.308 290.449H301.554L305.088 279.514L266.1 279.53V279.546L295.842 279.53L292.308 290.449Z" fill="#4A8B2C"/>
<path d="M291.266 322.289L292.749 317.698H283.503L282.809 319.844C282.32 322.226 281.2 324.325 279.653 326.029C277.523 328.38 274.525 329.863 271.149 330.147H287.495C289.215 327.765 290.588 325.145 291.266 322.289Z" fill="#4A8B2C"/>
<path d="M292.749 317.698L301.554 290.449H292.308L283.503 317.698H292.749Z" fill="white"/>
<path d="M266.1 290.48L226.764 290.496H96.4186L72.1357 393.56H129.964L138.847 356.276H243.473L250.179 330.273H144.779L147.541 317.824H266.1V317.698V290.48Z" fill="white"/>
<path d="M270.312 317.698H266.1V317.808H270.06C270.17 317.824 270.234 317.745 270.312 317.698Z" fill="white"/>
<path d="M270.312 317.698C270.502 317.587 270.644 317.382 270.644 317.004L279.133 290.464L266.084 290.48V317.698H270.312Z" fill="white"/>
<path d="M148.693 368.725H252.104L261.066 330.258H270.06C270.439 330.258 270.786 330.179 271.164 330.147H266.1V317.808H147.541L144.779 330.258H250.195L243.489 356.26H138.863L129.979 393.545H72.1357L96.4187 290.48H226.78L266.1 290.449V290.433V279.514L226.78 279.53H86.21L56.452 405.789C80.6718 403.122 109.341 400.487 141.592 398.499L148.693 368.725Z" fill="#4A8B2C"/>
<path d="M292.308 290.449L295.842 279.53L266.1 279.546V290.464L292.308 290.449Z" fill="#4A8B2C"/>
<path d="M282.809 319.844L283.503 317.698H270.312C270.234 317.745 270.17 317.808 270.06 317.808H266.1V330.147H271.165C274.541 329.863 277.539 328.38 279.669 326.029C281.2 324.325 282.32 322.226 282.809 319.844Z" fill="#4A8B2C"/>
<path d="M270.644 317.004C270.644 317.382 270.502 317.587 270.312 317.698H283.503L292.308 290.449L266.1 290.464V290.48L279.148 290.464L270.644 317.004Z" fill="#4A8B2C"/>
</g>
<defs>
<clipPath id="clip0_315_286">
<rect width="512" height="512" fill="white"/>
</clipPath>
</defs>
</svg>
