<?xml version="1.0" encoding="UTF-8"?>
<svg version="1.1" xmlns="http://www.w3.org/2000/svg" width="300" height="300">
<path d="M0 0 C99 0 198 0 300 0 C300 99 300 198 300 300 C201 300 102 300 0 300 C0 201 0 102 0 0 Z " fill="#000000" transform="translate(0,0)"/>
<path d="M0 0 C2.32415092 1.26498063 3.64828648 2.35048224 5.38671875 4.38671875 C8.36459224 6.93689048 10.07800001 6.56420652 13.9375 6.3125 C19.24998771 6.13541708 23.76955908 6.56506598 28.9375 7.8125 C35.0880385 9.2811824 39.37130455 9.43259793 45.47729492 7.7097168 C47.80987058 7.1954632 49.91312216 7.14004272 52.30078125 7.14453125 C53.20376953 7.12970703 54.10675781 7.11488281 55.03710938 7.09960938 C56.91716419 7.07502504 58.79757407 7.069572 60.67773438 7.08398438 C66.73597657 6.94189341 69.7527963 5.96769426 74.06738281 1.68823242 C77.34488177 -1.46456744 81.22402009 -2.09068851 85.625 -2.25 C93.22727387 -2.08562651 100.16469136 0.87848002 105.58203125 6.25390625 C107.09195714 8.18999127 108.36289436 10.11040487 109.5625 12.25 C110.01625 13.054375 110.47 13.85875 110.9375 14.6875 C112.27987932 20.19125521 112.01646784 25.09131145 110.0625 30.375 C108.64980243 35.89124765 111.71233679 39.85532496 114.38671875 44.45507812 C120.7829381 55.59293925 122.68782832 68.98236655 119.4375 81.5 C117.69101597 86.64664375 114.7950192 90.91905195 111.5625 95.25 C110.5725 94.92 109.5825 94.59 108.5625 94.25 C108.39234375 95.57257813 108.39234375 95.57257813 108.21875 96.921875 C106.1697225 107.3133716 98.40551875 117.05033028 89.9375 123.13671875 C85.93505066 125.59655741 81.95045961 127.56950483 77.5625 129.25 C77.2325 128.59 76.9025 127.93 76.5625 127.25 C76.10101563 127.6200415 75.63953125 127.99008301 75.1640625 128.37133789 C69.14579379 133.05675633 62.74559264 136.52940448 55.984375 140.01757812 C46.36999347 145.09025155 46.36999347 145.09025155 39.5625 153.25 C36.60422037 151.94153016 34.88224582 150.64677663 32.8125 148.1875 C28.68922311 143.90392293 23.80305963 141.40111939 18.62915039 138.60302734 C12.97048264 135.53300418 7.75006348 132.06407417 2.5625 128.25 C1.5725 127.59 0.5825 126.93 -0.4375 126.25 C-0.7675 127.24 -1.0975 128.23 -1.4375 129.25 C-14.61071246 121.30870171 -26.0678742 111.58165806 -32.4375 97.25 C-32.4375 96.26 -32.4375 95.27 -32.4375 94.25 C-34.4175 94.745 -34.4175 94.745 -36.4375 95.25 C-44.06987323 82.76066199 -46.49559122 70.78691564 -43.375 56.25 C-41.68757058 50.18503629 -38.91258352 44.81091596 -35.9609375 39.28125 C-34.7363865 36.84470749 -33.79480595 34.93282267 -33.4375 32.25 C-33.746875 31.528125 -34.05625 30.80625 -34.375 30.0625 C-36.34639034 24.84411381 -35.9525604 19.97696722 -34.375 14.6875 C-27.46585776 2.42934441 -14.23418038 -6.82277443 0 0 Z " fill="#060606" transform="translate(109.4375,24.75)"/>
<path d="M0 0 C2.35530533 1.63429349 4.33146186 3.39546139 6.37109375 5.40625 C8.18995814 7.18585833 9.25103727 7.96620386 11.8125 8.08178711 C12.534375 8.0638208 13.25625 8.04585449 14 8.02734375 C14.80018555 8.01380859 15.60037109 8.00027344 16.42480469 7.98632812 C17.69952637 7.9621582 17.69952637 7.9621582 19 7.9375 C25.2294473 7.86768923 30.9338622 8.08701695 37.01953125 9.54296875 C42.12753171 10.72173809 46.27624192 9.98039351 51.1875 8.5 C58.63300892 6.33180235 65.91220984 6.36251412 73.5 7.8125 C74.655 7.874375 75.81 7.93625 77 8 C79.28232418 5.79311693 79.28232418 5.79311693 81 3 C85.13785776 -0.63629925 89.32148179 -0.32210495 94.57421875 -0.30078125 C97 0 97 0 99 2 C98.41992188 2.02578125 97.83984375 2.0515625 97.2421875 2.078125 C91.74946514 2.47693652 88.23815479 3.22251421 84 7 C82.91298184 8.58765502 81.85298519 10.19396748 80.8125 11.8125 C78.0971509 15.95825621 75.61323789 18.11473961 71.3125 20.5625 C66.45450788 23.37186083 64.42098591 25.74500502 62.48828125 30.984375 C61.88228085 33.14029057 61.88228085 33.14029057 62 36 C62.71542969 35.67644531 63.43085938 35.35289063 64.16796875 35.01953125 C71.65491843 32.32422936 78.95690766 33.81067517 86 37 C86 37.33 86 37.66 86 38 C84.7934375 38.02578125 83.586875 38.0515625 82.34375 38.078125 C80.72913262 38.13444886 79.11455067 38.1917952 77.5 38.25 C76.31277344 38.27126953 76.31277344 38.27126953 75.1015625 38.29296875 C65.32918904 38.69347586 59.51008255 43.0854346 52.39453125 49.48828125 C50 51 50 51 47.19921875 50.73046875 C46.47347656 50.48941406 45.74773437 50.24835938 45 50 C44.0672582 45.900639 43.71174738 41.87956712 43.4375 37.6875 C43.35371094 36.43324219 43.26992187 35.17898437 43.18359375 33.88671875 C43.12300781 32.93410156 43.06242187 31.98148438 43 31 C42.86722656 32.28777344 42.73445313 33.57554688 42.59765625 34.90234375 C42.41950101 36.58075362 42.24110308 38.25913773 42.0625 39.9375 C41.97548828 40.78763672 41.88847656 41.63777344 41.79882812 42.51367188 C41.71181641 43.32255859 41.62480469 44.13144531 41.53515625 44.96484375 C41.456604 45.7137085 41.37805176 46.46257324 41.29711914 47.23413086 C41 49 41 49 40 50 C36.37803529 50.39615239 34.54102962 50.34721565 31.4375 48.35546875 C30.633125 47.64003906 29.82875 46.92460938 29 46.1875 C22.00510214 40.25179957 16.3638528 37.82694153 7.1875 37.9375 C6.21167969 37.94652344 5.23585937 37.95554688 4.23046875 37.96484375 C3.49441406 37.97644531 2.75835937 37.98804688 2 38 C3.0725 38.28875 4.145 38.5775 5.25 38.875 C7.98116846 40.0015383 8.84025029 40.69026021 10.21484375 43.35546875 C10.8516948 45.12790963 11.44244487 46.91775841 11.98046875 48.72265625 C12.81571329 51.15917743 12.81571329 51.15917743 15.11328125 52.30859375 C15.73589844 52.53675781 16.35851562 52.76492187 17 53 C16.835 54.03125 16.67 55.0625 16.5 56.125 C14.07766286 76.03029217 18.25668818 93.65690496 28 111 C30.62451617 113.62451617 32.4877828 113.5832868 36.125 114.125 C37.22070312 114.29257813 38.31640625 114.46015625 39.4453125 114.6328125 C40.70988281 114.81457031 40.70988281 114.81457031 42 115 C42 118.63 42 122.26 42 126 C24.63002482 119.05200993 10.76629409 108.56051054 -2 95 C-2.33 96.65 -2.66 98.3 -3 100 C-11.14684487 96.49812681 -15.71283235 88.50933234 -18.96875 80.64453125 C-19.3090625 79.77183594 -19.649375 78.89914063 -20 78 C-20.3196875 77.24074219 -20.639375 76.48148437 -20.96875 75.69921875 C-22.461995 72.02832478 -23.37259714 68.97436947 -23 65 C-24.65 65.99 -26.3 66.98 -28 68 C-31.4744414 61.48542238 -30.56338302 53.37853208 -28.82421875 46.421875 C-26.59523378 39.87225093 -23.47705596 33.59910581 -19 28.3125 C-16.82055841 24.70279987 -16.77176168 24.38132365 -17.6875 20.5625 C-17.91179687 19.80582031 -18.13609375 19.04914062 -18.3671875 18.26953125 C-19.63525471 13.72170997 -19.69569835 9.56532128 -17.75 5.1875 C-12.91257181 -0.85928524 -7.30178909 -2.16698257 0 0 Z " fill="#FAFAFA" transform="translate(105,35)"/>
<path d="M0 0 C2.32415092 1.26498063 3.64828648 2.35048224 5.38671875 4.38671875 C8.36459224 6.93689048 10.07800001 6.56420652 13.9375 6.3125 C19.24998771 6.13541708 23.76955908 6.56506598 28.9375 7.8125 C35.0880385 9.2811824 39.37130455 9.43259793 45.47729492 7.7097168 C47.80987058 7.1954632 49.91312216 7.14004272 52.30078125 7.14453125 C53.20376953 7.12970703 54.10675781 7.11488281 55.03710938 7.09960938 C56.91716419 7.07502504 58.79757407 7.069572 60.67773438 7.08398438 C66.73597657 6.94189341 69.7527963 5.96769426 74.06738281 1.68823242 C77.34488177 -1.46456744 81.22402009 -2.09068851 85.625 -2.25 C93.22727387 -2.08562651 100.16469136 0.87848002 105.58203125 6.25390625 C107.09195714 8.18999127 108.36289436 10.11040487 109.5625 12.25 C110.01625 13.054375 110.47 13.85875 110.9375 14.6875 C112.27987932 20.19125521 112.01646784 25.09131145 110.0625 30.375 C108.64980243 35.89124765 111.71233679 39.85532496 114.38671875 44.45507812 C120.7829381 55.59293925 122.68782832 68.98236655 119.4375 81.5 C117.69101597 86.64664375 114.7950192 90.91905195 111.5625 95.25 C110.5725 94.92 109.5825 94.59 108.5625 94.25 C108.39234375 95.57257813 108.39234375 95.57257813 108.21875 96.921875 C106.1697225 107.3133716 98.40551875 117.05033028 89.9375 123.13671875 C85.93505066 125.59655741 81.95045961 127.56950483 77.5625 129.25 C77.2325 128.59 76.9025 127.93 76.5625 127.25 C76.10101563 127.6200415 75.63953125 127.99008301 75.1640625 128.37133789 C69.14579379 133.05675633 62.74559264 136.52940448 55.984375 140.01757812 C46.36999347 145.09025155 46.36999347 145.09025155 39.5625 153.25 C36.60422037 151.94153016 34.88224582 150.64677663 32.8125 148.1875 C28.68922311 143.90392293 23.80305963 141.40111939 18.62915039 138.60302734 C12.97048264 135.53300418 7.75006348 132.06407417 2.5625 128.25 C1.5725 127.59 0.5825 126.93 -0.4375 126.25 C-0.7675 127.24 -1.0975 128.23 -1.4375 129.25 C-14.61071246 121.30870171 -26.0678742 111.58165806 -32.4375 97.25 C-32.4375 96.26 -32.4375 95.27 -32.4375 94.25 C-34.4175 94.745 -34.4175 94.745 -36.4375 95.25 C-44.06987323 82.76066199 -46.49559122 70.78691564 -43.375 56.25 C-41.68757058 50.18503629 -38.91258352 44.81091596 -35.9609375 39.28125 C-34.7363865 36.84470749 -33.79480595 34.93282267 -33.4375 32.25 C-33.746875 31.528125 -34.05625 30.80625 -34.375 30.0625 C-36.34639034 24.84411381 -35.9525604 19.97696722 -34.375 14.6875 C-27.46585776 2.42934441 -14.23418038 -6.82277443 0 0 Z M-26.8125 9.625 C-30.89983722 14.84524047 -31.90863295 19.65413867 -31.4375 26.25 C-31.086875 27.28125 -30.73625 28.3125 -30.375 29.375 C-29.15591936 33.11351395 -29.59017343 35.41588405 -31.24145508 38.99023438 C-32.26495557 40.98435321 -33.31837093 42.96075424 -34.375 44.9375 C-40.21809792 56.3343699 -42.86521148 68.6109091 -39.64453125 81.3984375 C-38.72471999 83.85831588 -37.89093009 86.06256341 -36.4375 88.25 C-35.4475 88.58 -34.4575 88.91 -33.4375 89.25 C-33.4375 88.59 -33.4375 87.93 -33.4375 87.25 C-32.7775 87.25 -32.1175 87.25 -31.4375 87.25 C-31.30214844 87.84425781 -31.16679688 88.43851562 -31.02734375 89.05078125 C-27.62070057 102.16737746 -19.04991898 113.30368934 -7.8125 120.875 C-7.02875 121.32875 -6.245 121.7825 -5.4375 122.25 C-3.4575 121.26 -3.4575 121.26 -1.4375 120.25 C-0.97085938 120.67667969 -0.50421875 121.10335937 -0.0234375 121.54296875 C6.96008019 127.52707844 14.64378729 131.98505852 22.62939453 136.50463867 C28.14168025 139.6613416 32.8868022 142.94292568 37.5625 147.25 C40.40802194 145.92498896 42.74413537 144.41888426 45.19140625 142.4609375 C49.68916199 139.02802881 54.4931057 136.48137402 59.5 133.875 C69.98110162 128.32710979 69.98110162 128.32710979 78.5625 120.25 C78.5625 119.59 78.5625 118.93 78.5625 118.25 C79.2225 118.25 79.8825 118.25 80.5625 118.25 C80.5625 119.9 80.5625 121.55 80.5625 123.25 C91.87335667 119.12252949 98.79245906 110.25419699 103.9375 99.6875 C105.7972291 95.23686626 106.25803698 91.04529251 106.5625 86.25 C107.2225 86.25 107.8825 86.25 108.5625 86.25 C108.8925 87.24 109.2225 88.23 109.5625 89.25 C110.2225 89.25 110.8825 89.25 111.5625 89.25 C112.21160154 87.66800369 112.85664694 86.08434276 113.5 84.5 C113.85964844 83.61828125 114.21929687 82.7365625 114.58984375 81.828125 C118.99275633 70.15775431 116.92142716 58.92437279 112.234375 47.79296875 C110.85711429 44.87433449 109.4300847 42.28699288 107.625 39.625 C105.5625 36.25 105.5625 36.25 105.6875 33 C106.120625 31.63875 106.120625 31.63875 106.5625 30.25 C108.10711182 24.81028011 108.29264995 19.5317186 106.5625 14.125 C102.63456181 8.47858886 97.50539927 3.49972187 90.5625 2.25 C84.49458159 1.71284001 79.78880484 1.76579677 74.5625 5.25 C72.20618175 7.18716038 72.20618175 7.18716038 70.5625 9.25 C70.5625 9.91 70.5625 10.57 70.5625 11.25 C69.8509375 11.09015625 69.139375 10.9303125 68.40625 10.765625 C61.05566414 9.43282647 54.08018113 9.96263521 46.875 11.8125 C40.59844029 13.39847218 35.79772508 13.36497085 29.57421875 11.7265625 C25.1024173 10.56439941 21.22547282 10.2296836 16.57958984 10.41674805 C6.16291914 10.82159016 6.16291914 10.82159016 2.375 7.375 C1.4262654 6.34355521 0.48692651 5.30328596 -0.4375 4.25 C-9.44406155 -1.10525281 -20.17188815 2.39090351 -26.8125 9.625 Z " fill="#E9E9E9" transform="translate(109.4375,24.75)"/>
<path d="M0 0 C4.97636773 2.7800937 7.35710842 5.95054787 9.66015625 11.109375 C11.84831029 20.17247248 11.46000928 28.96283546 6.66015625 37.109375 C3.44978337 40.75562096 0.08406404 42.87725824 -4.828125 43.34765625 C-10.86128236 43.50620395 -14.70535679 43.40475316 -19.33984375 39.109375 C-25.3863751 31.38325161 -26.23244067 23.65329591 -25.33984375 14.109375 C-23.9055728 7.99102931 -20.92054038 3.64233942 -15.6796875 0.1484375 C-10.51501491 -2.1450565 -5.24580949 -1.9967355 0 0 Z " fill="#050505" transform="translate(90.33984375,220.890625)"/>
<path d="M0 0 C5.89011964 3.71870688 9.97645463 8.95549435 11.90625 15.65234375 C13.5926645 25.6724566 13.83341695 37.06511618 7.828125 45.6484375 C4.10801451 50.20804195 0.41722545 53.81517246 -5.66430664 54.75146484 C-7.95266502 54.91225607 -10.20612881 54.95607 -12.5 54.9375 C-13.30139404 54.93250488 -14.10278809 54.92750977 -14.9284668 54.92236328 C-20.96680569 54.74333064 -25.24885307 53.84856299 -29.625 49.4375 C-31.0171875 48.0453125 -31.0171875 48.0453125 -32.4375 46.625 C-36.97165481 40.0180887 -38.18746046 33.90800755 -38.125 26.0625 C-38.11927979 25.22759033 -38.11355957 24.39268066 -38.10766602 23.5324707 C-37.88540911 15.85375664 -36.19575053 10.30106834 -30.91015625 4.58203125 C-23.07468869 -2.63620035 -9.85225101 -4.45742619 0 0 Z M-26.625 10.4375 C-31.33205152 17.07804293 -31.56104288 24.55754717 -30.625 32.4375 C-28.97160424 39.28330156 -26.45954321 43.50552523 -20.625 47.4375 C-16.69490869 49.40254566 -11.91864421 48.77151758 -7.625 48.4375 C-2.22671712 46.57263864 0.62169621 43.74093505 3.28515625 38.72265625 C6.75338064 30.83446218 6.34067787 22.33356793 3.28515625 14.375 C1.44516729 10.45811363 -0.67458308 8.10974612 -4.1875 5.625 C-12.85949407 2.62922023 -20.40384023 3.38197292 -26.625 10.4375 Z " fill="#F5F5F5" transform="translate(95.625,215.5625)"/>
<path d="M0 0 C7.1578741 1.37651425 12.51986812 5.78190565 18.12109375 10.16015625 C21.47487637 12.49695716 21.47487637 12.49695716 28 14 C28 22.25 28 30.5 28 39 C24.535 39.495 24.535 39.495 21 40 C18.61971709 41.42675173 18.61971709 41.42675173 17 43 C17.33 45.31 17.66 47.62 18 50 C19.65 49.34 21.3 48.68 23 48 C27.82029598 52.82029598 27.82029598 52.82029598 28.33203125 56.1796875 C28.31474316 58.1228691 28.16690325 60.06392229 28 62 C23.38 62.66 18.76 63.32 14 64 C6.76394779 48.83874775 5.51422915 31.25581749 10.24609375 15.1171875 C11 13 11 13 12 11 C10.9275 10.938125 9.855 10.87625 8.75 10.8125 C5 10 5 10 2.625 7.75 C1.03393533 5.05742902 0.35259093 3.08517061 0 0 Z " fill="#F6F6F6" transform="translate(119,77)"/>
<path d="M0 0 C4.14353764 4.39466113 4.34180751 8.13204117 4.2578125 14.015625 C4.2549826 14.76463074 4.25215271 15.51363647 4.24923706 16.28533936 C4.2380726 18.66955776 4.21297531 21.05339579 4.1875 23.4375 C4.17746535 25.05728623 4.16834035 26.67707836 4.16015625 28.296875 C4.13814555 32.26056246 4.10364175 36.22396681 4.0625 40.1875 C1.7525 40.1875 -0.5575 40.1875 -2.9375 40.1875 C-2.95151855 38.75700317 -2.95151855 38.75700317 -2.96582031 37.29760742 C-3.00570433 33.75807038 -3.07145659 30.21940407 -3.14501953 26.68041992 C-3.17323878 25.14895822 -3.19444869 23.61735061 -3.20849609 22.08569336 C-3.22991426 19.88319151 -3.27655138 17.68244541 -3.328125 15.48046875 C-3.32935364 14.79599167 -3.33058228 14.11151459 -3.33184814 13.40629578 C-3.42905769 10.249046 -3.55279232 8.59267413 -5.76855469 6.2590332 C-10.2288056 4.05551663 -13.9856581 4.90903561 -18.609375 6.26171875 C-20.55932102 7.28228647 -20.55932102 7.28228647 -21.9375 9.1875 C-22.99722777 14.25379421 -22.9180622 19.28891311 -22.875 24.4375 C-22.88811211 25.86461591 -22.90435357 27.29170673 -22.92382812 28.71875 C-22.96463911 32.20877461 -22.9625208 35.69725607 -22.9375 39.1875 C-25.2475 39.1875 -27.5575 39.1875 -29.9375 39.1875 C-29.9375 25.9875 -29.9375 12.7875 -29.9375 -0.8125 C-27.6275 -0.8125 -25.3175 -0.8125 -22.9375 -0.8125 C-22.9375 0.1775 -22.9375 1.1675 -22.9375 2.1875 C-21.865 1.548125 -20.7925 0.90875 -19.6875 0.25 C-13.33464134 -3.53728112 -6.4108309 -3.95561907 0 0 Z " fill="#F2F2F2" transform="translate(235.9375,229.8125)"/>
<path d="M0 0 C0 2.64 0 5.28 0 8 C-0.70125 7.71125 -1.4025 7.4225 -2.125 7.125 C-8.02178903 4.81756082 -12.66273034 3.32100682 -19 4 C-19.99 4.66 -20.98 5.32 -22 6 C-22.2502157 9.08365871 -22.2502157 9.08365871 -22 12 C-18.12206989 13.81520133 -14.58079134 15.16870456 -10.375 16 C-5.67934055 16.95993038 -2.41527454 18.58472546 1 22 C1.68810423 26.02722056 1.90834545 30.21949815 0.01953125 33.921875 C-2.2799896 36.7803563 -4.59184129 38.72984304 -8 40 C-10.65177643 40.21884972 -13.16358523 40.32472952 -15.8125 40.3125 C-16.49892578 40.32861328 -17.18535156 40.34472656 -17.89257812 40.36132812 C-22.95872976 40.36612108 -26.46307061 39.2477075 -31 37 C-31 34.36 -31 31.72 -31 29 C-26.26041667 30.8431713 -26.26041667 30.8431713 -24.2421875 32.05859375 C-21.20944821 33.33192157 -18.6519042 33.22818391 -15.375 33.1875 C-13.65410156 33.17783203 -13.65410156 33.17783203 -11.8984375 33.16796875 C-9.0607447 33.19483817 -9.0607447 33.19483817 -7 32 C-7 29.69 -7 27.38 -7 25 C-8.01320312 24.75765625 -9.02640625 24.5153125 -10.0703125 24.265625 C-11.42202833 23.92769604 -12.77358243 23.58911976 -14.125 23.25 C-14.79015625 23.09273437 -15.4553125 22.93546875 -16.140625 22.7734375 C-21.9833006 21.28412803 -26.5524282 19.17135769 -30 14 C-30.54556906 10.93332762 -30.52423057 8.06972126 -30 5 C-22.01322463 -5.80563726 -11.1803868 -3.92130477 0 0 Z " fill="#EFEFEF" transform="translate(147,230)"/>
<path d="M0 0 C1.98 0 3.96 0 6 0 C6 16.17 6 32.34 6 49 C9.63 49 13.26 49 17 49 C17 50.65 17 52.3 17 54 C7.43 54 -2.14 54 -12 54 C-12 52.35 -12 50.7 -12 49 C-8.37 49 -4.74 49 -1 49 C-1 36.79 -1 24.58 -1 12 C-4.63 12 -8.26 12 -12 12 C-12 10.35 -12 8.7 -12 7 C-11.38511719 6.91363281 -10.77023438 6.82726562 -10.13671875 6.73828125 C-7.66192797 6.30805446 -5.36790967 5.84446958 -3 5 C-1.94895617 3.36504293 -0.94011682 1.70116376 0 0 Z " fill="#FAFAFA" transform="translate(174,215)"/>
<path d="M0 0 C-0.41434907 4.83407252 -2.37793954 6.89537674 -6 10 C-6.99 10.33 -7.98 10.66 -9 11 C-8.71125 11.98097656 -8.4225 12.96195313 -8.125 13.97265625 C-3.32524741 31.08593262 -4.72577776 44.43118009 -11 61 C-12.25273101 57.24180696 -11.5351304 55.50453395 -10.5625 51.6875 C-7.39267028 37.5832118 -9.36713242 24.75299871 -13 11 C-14.65 11 -16.3 11 -18 11 C-13.17719303 5.71046977 -7.41008075 0 0 0 Z " fill="#F3F3F3" transform="translate(176,78)"/>
<path d="M0 0 C3.76206193 1.8603603 6.90560492 4.40105214 10.1328125 7.0546875 C13.18094405 9.48972238 15.23260503 10.51299202 19.1328125 11.0546875 C19.1328125 11.3846875 19.1328125 11.7146875 19.1328125 12.0546875 C16.38466808 13.52036452 15.18328161 14.15478925 12.1328125 14.0546875 C9.11941036 12.31194395 6.51952955 10.27671739 3.80078125 8.10546875 C0.66669725 5.69639979 -2.16926851 4.36950314 -5.8671875 3.0546875 C-4.5471875 6.0246875 -3.2271875 8.9946875 -1.8671875 12.0546875 C-2.8571875 12.7146875 -3.8471875 13.3746875 -4.8671875 14.0546875 C-7.91344873 11.53364372 -9.04779449 9.66649438 -9.9921875 5.9296875 C-10.58052957 3.79524653 -10.58052957 3.79524653 -11.8671875 2.0546875 C-15.14794415 0.74663866 -18.3586726 0.31799068 -21.8671875 0.0546875 C-15.27585546 -3.8017795 -6.90595387 -2.5990149 0 0 Z " fill="#191919" transform="translate(124.8671875,73.9453125)"/>
<path d="M0 0 C6.34460371 -0.34960061 11.99112147 0.0919463 18.1875 1.5625 C24.48425585 3.03151314 28.82169426 3.13953793 35.0625 1.4375 C38.08307149 0.75543547 40.92127704 0.82895984 44 1 C44.66 1.66 45.32 2.32 46 3 C39.50146654 7.33235564 30.77399202 8.72646959 23.1015625 7.45703125 C20.19994541 6.82601043 17.30724428 6.16180661 14.41796875 5.4765625 C9.99011888 4.60386834 5.49649266 4.31937705 1 4 C0.67 2.68 0.34 1.36 0 0 Z " fill="#E3E3E3" transform="translate(120,31)"/>
<path d="M0 0 C4.24591136 0.65321713 7.18184325 2.50446234 10.25 5.5 C10.25 6.16 10.25 6.82 10.25 7.5 C9.095 8.015625 7.94 8.53125 6.75 9.0625 C1.90073659 11.46115351 -1.84432394 14.80207267 -5.75 18.5 C-6.08 17.51 -6.41 16.52 -6.75 15.5 C-4.8125 12.3125 -4.8125 12.3125 -2.75 9.5 C-4.4 9.5 -6.05 9.5 -7.75 9.5 C-5.38707344 6.97411298 -4.08537489 5.61179163 -0.75 4.5 C-2.4 4.17 -4.05 3.84 -5.75 3.5 C-3.95883039 1.11177386 -2.97995724 0.54181041 0 0 Z " fill="#181818" transform="translate(98.75,38.5)"/>
<path d="M0 0 C0.66 0.33 1.32 0.66 2 1 C-1.08657598 8.19684047 -8.4101321 11.46772381 -15.3125 14.3359375 C-16.1478125 14.66464844 -16.1478125 14.66464844 -17 15 C-17.33 14.34 -17.66 13.68 -18 13 C-20.475 14.485 -20.475 14.485 -23 16 C-22.38271885 12.61638481 -21.13020282 10.47997439 -19.0625 7.75 C-18.27552734 6.69039062 -18.27552734 6.69039062 -17.47265625 5.609375 C-16.74369141 4.81273437 -16.74369141 4.81273437 -16 4 C-15.34 4 -14.68 4 -14 4 C-14 5.65 -14 7.3 -14 9 C-12.22566188 8.06915029 -10.45564851 7.13005387 -8.6875 6.1875 C-7.70136719 5.66542969 -6.71523437 5.14335937 -5.69921875 4.60546875 C-3.38334932 3.2280124 -1.76388999 2.00469409 0 0 Z " fill="#F0F0F0" transform="translate(204,139)"/>
<path d="M0 0 C-0.41434907 4.83407252 -2.37793954 6.89537674 -6 10 C-6.99 10.33 -7.98 10.66 -9 11 C-9.33 11.66 -9.66 12.32 -10 13 C-10.99 13 -11.98 13 -13 13 C-13 12.34 -13 11.68 -13 11 C-14.65 11 -16.3 11 -18 11 C-13.17719303 5.71046977 -7.41008075 0 0 0 Z " fill="#EDEDED" transform="translate(176,78)"/>
<path d="M0 0 C-0.33 0.66 -0.66 1.32 -1 2 C-5.03896157 3.34632052 -8.7712147 3.18417548 -13 3.1875 C-14.22976562 3.20586914 -14.22976562 3.20586914 -15.484375 3.22460938 C-16.27328125 3.22654297 -17.0621875 3.22847656 -17.875 3.23046875 C-18.59429687 3.23457764 -19.31359375 3.23868652 -20.0546875 3.24291992 C-22 3 -22 3 -25 1 C-25 0.34 -25 -0.32 -25 -1 C-16.67973805 -2.2558886 -7.92139358 -3.4254675 0 0 Z " fill="#E5E5E5" transform="translate(160,144)"/>
<path d="M0 0 C1.9375 0.6875 1.9375 0.6875 2.9375 2.6875 C2.40640625 2.91824219 1.8753125 3.14898438 1.328125 3.38671875 C0.26851562 3.87591797 0.26851562 3.87591797 -0.8125 4.375 C-1.50859375 4.68824219 -2.2046875 5.00148438 -2.921875 5.32421875 C-5.27651947 6.62252938 -5.27651947 6.62252938 -6.84375 9.34375 C-9.0625 11.6875 -9.0625 11.6875 -12.734375 11.95703125 C-14.09647848 11.83140035 -15.45626979 11.67818147 -16.8125 11.5 C-17.50988281 11.42974609 -18.20726562 11.35949219 -18.92578125 11.28710938 C-20.64062008 11.1109273 -22.35207762 10.90236649 -24.0625 10.6875 C-24.3925 9.6975 -24.7225 8.7075 -25.0625 7.6875 C-23.66837891 7.68363281 -23.66837891 7.68363281 -22.24609375 7.6796875 C-13.87423255 7.62129011 -13.87423255 7.62129011 -6.8125 3.6875 C-5.88722855 2.69545639 -4.96872815 1.69696933 -4.0625 0.6875 C-2.0625 -0.3125 -2.0625 -0.3125 0 0 Z " fill="#EEEEEE" transform="translate(189.0625,24.3125)"/>
<path d="M0 0 C6.36027614 1.22313003 10.66884313 4.28668223 15 9 C14.01 9.99 13.02 10.98 12 12 C8.04290996 11.16292326 5.55787794 10.54319694 2.625 7.6875 C1.01289723 5.02133003 0.35126785 3.07359367 0 0 Z " fill="#ECECEC" transform="translate(119,77)"/>
<path d="M0 0 C7.29031024 -0.2494783 13.90673679 0.27669093 21 2 C20.34 2.66 19.68 3.32 19 4 C19.33 4.66 19.66 5.32 20 6 C13.73 5.34 7.46 4.68 1 4 C0.67 2.68 0.34 1.36 0 0 Z " fill="#DEDEDE" transform="translate(120,31)"/>
<path d="M0 0 C0.66 0 1.32 0 2 0 C1.814375 0.78375 1.62875 1.5675 1.4375 2.375 C0.74037734 4.97089775 0.74037734 4.97089775 2 7 C1.07544441 8.508013 0.1349253 10.00624917 -0.8125 11.5 C-1.33457031 12.3353125 -1.85664063 13.170625 -2.39453125 14.03125 C-2.92433594 14.6809375 -3.45414063 15.330625 -4 16 C-4.99 16 -5.98 16 -7 16 C-7 11.63701394 -6.50148016 10.82911712 -4.0625 7.4375 C-2.22759655 4.86516491 -1.00645315 3.01935946 0 0 Z M-12 17 C-11.34 17.33 -10.68 17.66 -10 18 C-11.98 18.99 -11.98 18.99 -14 20 C-13.34 19.01 -12.68 18.02 -12 17 Z " fill="#E5E5E5" transform="translate(212,124)"/>
<path d="M0 0 C0.57621094 0.22945312 1.15242188 0.45890625 1.74609375 0.6953125 C0.59677258 4.143276 -0.23919894 4.66299088 -3.12890625 6.6953125 C-5.7346835 8.54147203 -8.0563174 10.37333182 -10.25390625 12.6953125 C-11.24390625 12.3653125 -12.23390625 12.0353125 -13.25390625 11.6953125 C-11.04906126 7.1478197 -5.6592791 -0.76503253 0 0 Z " fill="#EFEFEF" transform="translate(90.25390625,25.3046875)"/>
<path d="M0 0 C0.33 0 0.66 0 1 0 C1.29513146 12.59227564 -0.51342833 22.15196607 -5 34 C-6.26811517 30.1956545 -5.54052774 28.1971934 -4.625 24.3125 C-3.46405764 19.19693207 -2.52161652 14.21616516 -2 9 C-1.67 9 -1.34 9 -1 9 C-0.67 6.03 -0.34 3.06 0 0 Z " fill="#CBCBCB" transform="translate(170,105)"/>
<path d="M0 0 C3.03656917 2.5988655 4.46163739 5.62071728 6.1875 9.1875 C6.71730469 10.27417969 7.24710938 11.36085938 7.79296875 12.48046875 C8.19128906 13.31191406 8.58960938 14.14335938 9 15 C7.68 15.33 6.36 15.66 5 16 C3.77235126 14.09564732 2.56838767 12.1760079 1.375 10.25 C0.70210937 9.18265625 0.02921875 8.1153125 -0.6640625 7.015625 C-2 4 -2 4 -1.2109375 1.609375 C-0.61152344 0.81273437 -0.61152344 0.81273437 0 0 Z " fill="#EDEDED" transform="translate(216,57)"/>
<path d="M0 0 C1.72880982 -0.05449838 3.45812712 -0.09301688 5.1875 -0.125 C6.15042969 -0.14820312 7.11335937 -0.17140625 8.10546875 -0.1953125 C11.12812778 0.0086456 13.26769985 0.73125368 16 2 C15.34 3.32 14.68 4.64 14 6 C12.03897046 5.77211278 10.08109495 5.51694943 8.125 5.25 C7.03445312 5.11078125 5.94390625 4.9715625 4.8203125 4.828125 C2 4 2 4 0.6171875 1.921875 C0.41351563 1.28765625 0.20984375 0.6534375 0 0 Z " fill="#E7E7E7" transform="translate(190,23)"/>
<path d="M0 0 C0.66 0.66 1.32 1.32 2 2 C1.41992188 2.02578125 0.83984375 2.0515625 0.2421875 2.078125 C-5.27142342 2.47845319 -8.53140938 3.51231951 -13 7 C-13.99 7.495 -13.99 7.495 -15 8 C-15 7.34 -15 6.68 -15 6 C-15.99 6.33 -16.98 6.66 -18 7 C-17.04908327 4.49303771 -16.06198622 3.05598755 -14.0625 1.25 C-9.5028795 -0.61106959 -4.86793984 -0.60359318 0 0 Z " fill="#DEDEDE" transform="translate(202,35)"/>
<path d="M0 0 C4.95694043 0.70813435 8.45443775 2.45443775 12 6 C9 8 9 8 7.125 7.9375 C4.04122671 6.57701179 2.20333965 4.50935905 0 2 C0 1.34 0 0.68 0 0 Z " fill="#F1F1F1" transform="translate(110,28)"/>
<path d="M0 0 C4.62 0 9.24 0 14 0 C14.33 0.99 14.66 1.98 15 3 C10.38 3 5.76 3 1 3 C0.67 2.01 0.34 1.02 0 0 Z " fill="#FCFCFC" transform="translate(164,32)"/>
<path d="M0 0 C1.98 0.495 1.98 0.495 4 1 C3.25 8.75 3.25 8.75 1 11 C-1.78637633 6.8204355 -0.79562512 4.85331323 0 0 Z " fill="#DEDEDE" transform="translate(225,100)"/>
<path d="M0 0 C3.375 -0.125 3.375 -0.125 7 0 C7.66 0.66 8.32 1.32 9 2 C5.91111478 4.05925681 5.29064073 4.2390374 1.8125 4.125 C-0.0746875 4.063125 -0.0746875 4.063125 -2 4 C-2.33 3.34 -2.66 2.68 -3 2 C-2.01 2 -1.02 2 0 2 C0 1.34 0 0.68 0 0 Z " fill="#EAEAEA" transform="translate(157,32)"/>
<path d="M0 0 C2.31 0.33 4.62 0.66 7 1 C6.34 1.66 5.68 2.32 5 3 C5.33 3.66 5.66 4.32 6 5 C3.36 4.67 0.72 4.34 -2 4 C-1.34 2.68 -0.68 1.36 0 0 Z " fill="#D5D5D5" transform="translate(134,32)"/>
<path d="M0 0 C1.67542976 0.28604898 3.34385343 0.61781233 5 1 C4.34 2.32 3.68 3.64 3 5 C-2.94 4.01 -2.94 4.01 -9 3 C-9 2.67 -9 2.34 -9 2 C-6.94921875 1.77213542 -4.8984375 1.54427083 -2.84765625 1.31640625 C-0.98859771 1.18113386 -0.98859771 1.18113386 0 0 Z " fill="#DCDCDC" transform="translate(201,24)"/>
<path d="M0 0 C0.66 0.66 1.32 1.32 2 2 C1.79107816 5.27310883 1.56305786 7.32433057 -0.5625 9.875 C-1.036875 10.24625 -1.51125 10.6175 -2 11 C-3.26190138 8.47619724 -2.83487878 7.61656307 -2.125 4.9375 C-1.94195312 4.22464844 -1.75890625 3.51179688 -1.5703125 2.77734375 C-1 1 -1 1 0 0 Z " fill="#F1F1F1" transform="translate(215,119)"/>
<path d="M0 0 C4.75 0.75 4.75 0.75 7 3 C6.75 6.0625 6.75 6.0625 6 9 C5.01 9.495 5.01 9.495 4 10 C4.0825 9.0925 4.165 8.185 4.25 7.25 C4.31024799 3.89958592 4.31024799 3.89958592 2 1.625 C1.34 1.08875 0.68 0.5525 0 0 Z " fill="#A5A5A5" transform="translate(155,117)"/>
<path d="M0 0 C0.99 0.33 1.98 0.66 3 1 C2.67 2.98 2.34 4.96 2 7 C1.01 7 0.02 7 -1 7 C-0.67 4.69 -0.34 2.38 0 0 Z " fill="#F0F0F0" transform="translate(223,108)"/>
<path d="M0 0 C0.33 0.66 0.66 1.32 1 2 C1.66 2 2.32 2 3 2 C3 3.65 3 5.3 3 7 C2.01 7.495 2.01 7.495 1 8 C-1 5 -1 5 -0.625 2.3125 C-0.41875 1.549375 -0.2125 0.78625 0 0 Z " fill="#EEEEEE" transform="translate(226,80)"/>
<path d="M0 0 C0.66 1.32 1.32 2.64 2 4 C1.01 5.485 1.01 5.485 0 7 C-2.625 7.1875 -2.625 7.1875 -5 7 C-3.68 6.67 -2.36 6.34 -1 6 C-1.309375 5.071875 -1.309375 5.071875 -1.625 4.125 C-1.810625 3.073125 -1.810625 3.073125 -2 2 C-1.34 1.34 -0.68 0.68 0 0 Z " fill="#DFDFDF" transform="translate(180,29)"/>
<path d="M0 0 C1.9375 0.8125 1.9375 0.8125 4 2 C4.33 2.99 4.66 3.98 5 5 C2 5 2 5 -1 3 C-0.67 2.01 -0.34 1.02 0 0 Z " fill="#F0F0F0" transform="translate(206,26)"/>
<path d="M0 0 C2.64 0.66 5.28 1.32 8 2 C8 2.33 8 2.66 8 3 C1.25 5.125 1.25 5.125 -1 4 C-0.67 2.68 -0.34 1.36 0 0 Z " fill="#2B2B2B" transform="translate(136,83)"/>
<path d="M0 0 C-1.125 1.5 -1.125 1.5 -3 3 C-6.1875 3.1875 -6.1875 3.1875 -9 3 C-6.38997624 -0.48003168 -4.1689578 -0.27793052 0 0 Z " fill="#2A2A2A" transform="translate(102,39)"/>
<path d="M0 0 C1.32 0 2.64 0 4 0 C3.67 2.31 3.34 4.62 3 7 C1.29159719 5.36587557 0.06546953 4.13093906 -1 2 C-0.67 1.34 -0.34 0.68 0 0 Z " fill="#D9D9D9" transform="translate(76,37)"/>
</svg>
